<svg width="182" height="69" viewBox="0 0 182 69" fill="none" xmlns="http://www.w3.org/2000/svg">
<path d="M181.579 0H0V54.4737H181.579V0Z" fill="#0C2047"/>
<path d="M90.4999 69L80.5406 51.75H100.459L90.4999 69Z" fill="#0C2047"/>
<path d="M54.5609 16.1386C55.3449 16.2319 55.9656 16.4933 56.4229 16.9226C56.8896 17.3519 57.1229 17.8839 57.1229 18.5186C57.1229 19.0039 56.9829 19.4426 56.7029 19.8346C56.4229 20.2266 56.0356 20.5393 55.5409 20.7726C55.0463 20.9966 54.4956 21.1086 53.8889 21.1086C53.6276 21.1086 53.3289 21.0946 52.9929 21.0666C52.8623 21.0573 52.6989 21.0479 52.5029 21.0386C52.3163 21.0293 52.1063 21.0246 51.8729 21.0246L50.8509 21.0386C50.6643 21.0479 50.4123 21.0526 50.0949 21.0526C50.0669 21.0526 50.0529 21.0246 50.0529 20.9686C50.0529 20.9126 50.0669 20.8846 50.0949 20.8846C50.3656 20.8846 50.5709 20.8613 50.7109 20.8146C50.8509 20.7586 50.9489 20.6653 51.0049 20.5346C51.0703 20.3946 51.1029 20.1893 51.1029 19.9186V13.4366C51.1029 13.0446 51.0376 12.7879 50.9069 12.6666C50.7763 12.5359 50.5103 12.4706 50.1089 12.4706C50.0903 12.4706 50.0809 12.4426 50.0809 12.3866C50.0809 12.3306 50.0903 12.3026 50.1089 12.3026L50.8509 12.3166C51.2803 12.3353 51.6209 12.3446 51.8729 12.3446C52.1343 12.3446 52.4049 12.3306 52.6849 12.3026C52.7783 12.2933 52.9183 12.2839 53.1049 12.2746C53.2916 12.2653 53.4549 12.2606 53.5949 12.2606C54.4443 12.2606 55.1023 12.4146 55.5689 12.7226C56.0356 13.0306 56.2689 13.4786 56.2689 14.0666C56.2689 14.5146 56.1196 14.9206 55.8209 15.2846C55.5316 15.6486 55.1116 15.9333 54.5609 16.1386ZM53.3849 12.5686C53.1143 12.5686 52.9276 12.6339 52.8249 12.7646C52.7223 12.8859 52.6709 13.1193 52.6709 13.4646V16.1246L53.2309 16.1386C53.7163 16.1386 54.0896 15.9566 54.3509 15.5926C54.6123 15.2286 54.7429 14.7619 54.7429 14.1926C54.7429 13.6606 54.6263 13.2593 54.3929 12.9886C54.1596 12.7086 53.8236 12.5686 53.3849 12.5686ZM53.6509 20.7586C54.8736 20.7586 55.4849 20.1239 55.4849 18.8546C55.4849 18.1359 55.3123 17.5666 54.9669 17.1466C54.6216 16.7266 54.0989 16.5166 53.3989 16.5166C53.1283 16.5166 52.8856 16.5259 52.6709 16.5446V19.9186C52.6709 20.2266 52.7316 20.4459 52.8529 20.5766C52.9743 20.6979 53.2403 20.7586 53.6509 20.7586ZM62.9711 21.2206C62.1031 21.2206 61.3284 21.0199 60.6471 20.6186C59.9751 20.2079 59.4524 19.6573 59.0791 18.9666C58.7151 18.2666 58.5331 17.5059 58.5331 16.6846C58.5331 15.7233 58.7758 14.9019 59.2611 14.2206C59.7464 13.5299 60.3671 13.0119 61.1231 12.6666C61.8884 12.3213 62.6678 12.1486 63.4611 12.1486C64.3478 12.1486 65.1271 12.3586 65.7991 12.7786C66.4711 13.1893 66.9844 13.7353 67.3391 14.4166C67.7031 15.0979 67.8851 15.8213 67.8851 16.5866C67.8851 17.4359 67.6611 18.2153 67.2131 18.9246C66.7651 19.6339 66.1631 20.1939 65.4071 20.6046C64.6604 21.0153 63.8484 21.2206 62.9711 21.2206ZM63.4331 20.8706C63.9558 20.8706 64.4224 20.7213 64.8331 20.4226C65.2531 20.1146 65.5798 19.6713 65.8131 19.0926C66.0464 18.5046 66.1631 17.8046 66.1631 16.9926C66.1631 16.1339 66.0324 15.3686 65.7711 14.6966C65.5098 14.0153 65.1318 13.4833 64.6371 13.1006C64.1424 12.7179 63.5638 12.5266 62.9011 12.5266C62.0518 12.5266 61.3984 12.8486 60.9411 13.4926C60.4838 14.1273 60.2551 15.0186 60.2551 16.1666C60.2551 17.0719 60.3904 17.8839 60.6611 18.6026C60.9411 19.3119 61.3191 19.8673 61.7951 20.2686C62.2804 20.6699 62.8264 20.8706 63.4331 20.8706ZM78.7299 20.8846C78.7579 20.8846 78.7719 20.9126 78.7719 20.9686C78.7719 21.0246 78.7579 21.0526 78.7299 21.0526L77.4839 21.0386L76.4899 21.0526C76.3779 21.0526 76.3032 21.0386 76.2659 21.0106C76.2379 20.9826 76.2239 20.9079 76.2239 20.7866V19.8346C75.7292 20.3106 75.2345 20.6606 74.7399 20.8846C74.2452 21.1086 73.7039 21.2206 73.1159 21.2206C72.5092 21.2206 71.9539 21.1086 71.4499 20.8846C70.9552 20.6513 70.5632 20.3246 70.2739 19.9046C69.9845 19.4846 69.8399 18.9993 69.8399 18.4486V13.4366C69.8399 13.1566 69.8165 12.9513 69.7699 12.8206C69.7232 12.6899 69.6299 12.6013 69.4899 12.5546C69.3499 12.4986 69.1352 12.4706 68.8459 12.4706C68.8179 12.4706 68.8039 12.4426 68.8039 12.3866C68.8039 12.3306 68.8179 12.3026 68.8459 12.3026L69.5879 12.3166C70.0172 12.3353 70.3579 12.3446 70.6099 12.3446C70.8899 12.3446 71.2445 12.3353 71.6739 12.3166L72.4019 12.3026C72.4205 12.3026 72.4299 12.3306 72.4299 12.3866C72.4299 12.4426 72.4205 12.4706 72.4019 12.4706C72.1125 12.4706 71.8979 12.4986 71.7579 12.5546C71.6179 12.6106 71.5199 12.7086 71.4639 12.8486C71.4172 12.9793 71.3939 13.1846 71.3939 13.4646V17.9586C71.3939 18.8266 71.5992 19.4939 72.0099 19.9606C72.4299 20.4273 72.9899 20.6606 73.6899 20.6606C74.1379 20.6606 74.5625 20.5626 74.9639 20.3666C75.3652 20.1706 75.7852 19.8626 76.2239 19.4426V13.4646C76.2239 13.1846 76.2005 12.9793 76.1539 12.8486C76.1072 12.7086 76.0139 12.6106 75.8739 12.5546C75.7432 12.4986 75.5285 12.4706 75.2299 12.4706C75.2112 12.4706 75.2019 12.4426 75.2019 12.3866C75.2019 12.3306 75.2112 12.3026 75.2299 12.3026L75.9719 12.3166C76.3825 12.3353 76.7092 12.3446 76.9519 12.3446C77.2225 12.3446 77.5632 12.3353 77.9739 12.3166L78.7299 12.3026C78.7579 12.3026 78.7719 12.3306 78.7719 12.3866C78.7719 12.4426 78.7579 12.4706 78.7299 12.4706C78.4405 12.4706 78.2259 12.4986 78.0859 12.5546C77.9459 12.6013 77.8479 12.6899 77.7919 12.8206C77.7452 12.9513 77.7219 13.1566 77.7219 13.4366V19.9186C77.7219 20.1986 77.7452 20.4086 77.7919 20.5486C77.8479 20.6793 77.9412 20.7679 78.0719 20.8146C78.2119 20.8613 78.4312 20.8846 78.7299 20.8846ZM82.1572 19.8626C82.1572 20.1053 82.1759 20.2826 82.2132 20.3946C82.2506 20.4973 82.3206 20.5673 82.4232 20.6046C82.5352 20.6419 82.7126 20.6606 82.9552 20.6606H83.4312C84.1592 20.6606 84.7892 20.4693 85.3212 20.0866C85.8532 19.6946 86.2079 19.1673 86.3852 18.5046C86.3852 18.4859 86.4039 18.4766 86.4412 18.4766C86.4599 18.4766 86.4786 18.4859 86.4972 18.5046C86.5252 18.5139 86.5392 18.5233 86.5392 18.5326C86.4552 19.4566 86.4132 20.2266 86.4132 20.8426C86.4132 20.9173 86.3946 20.9733 86.3572 21.0106C86.3292 21.0386 86.2779 21.0526 86.2032 21.0526H79.5952C79.5766 21.0526 79.5672 21.0246 79.5672 20.9686C79.5672 20.9126 79.5766 20.8846 79.5952 20.8846C79.8939 20.8846 80.1086 20.8613 80.2392 20.8146C80.3792 20.7679 80.4726 20.6793 80.5192 20.5486C80.5752 20.4086 80.6032 20.1986 80.6032 19.9186V13.4366C80.6032 13.1566 80.5752 12.9513 80.5192 12.8206C80.4726 12.6899 80.3792 12.6013 80.2392 12.5546C80.0992 12.4986 79.8846 12.4706 79.5952 12.4706C79.5766 12.4706 79.5672 12.4426 79.5672 12.3866C79.5672 12.3306 79.5766 12.3026 79.5952 12.3026L80.3092 12.3166C80.7386 12.3353 81.0932 12.3446 81.3732 12.3446C81.6532 12.3446 82.0079 12.3353 82.4372 12.3166L83.1512 12.3026C83.1792 12.3026 83.1932 12.3306 83.1932 12.3866C83.1932 12.4426 83.1792 12.4706 83.1512 12.4706C82.8619 12.4706 82.6472 12.4986 82.5072 12.5546C82.3672 12.6013 82.2739 12.6946 82.2272 12.8346C82.1806 12.9653 82.1572 13.1706 82.1572 13.4506V19.8626ZM93.7481 18.8266C93.7481 18.8079 93.7668 18.7986 93.8041 18.7986C93.8321 18.7986 93.8555 18.8079 93.8741 18.8266C93.9021 18.8359 93.9161 18.8453 93.9161 18.8546C93.8228 19.5826 93.7761 20.2453 93.7761 20.8426C93.7761 20.9173 93.7621 20.9733 93.7341 21.0106C93.7061 21.0386 93.6501 21.0526 93.5661 21.0526H87.3781C87.3501 21.0526 87.3361 21.0246 87.3361 20.9686C87.3361 20.9126 87.3501 20.8846 87.3781 20.8846C87.6768 20.8846 87.8915 20.8613 88.0221 20.8146C88.1621 20.7679 88.2555 20.6793 88.3021 20.5486C88.3488 20.4086 88.3721 20.1986 88.3721 19.9186V13.4366C88.3721 13.1566 88.3488 12.9513 88.3021 12.8206C88.2555 12.6899 88.1621 12.6013 88.0221 12.5546C87.8821 12.4986 87.6675 12.4706 87.3781 12.4706C87.3501 12.4706 87.3361 12.4426 87.3361 12.3866C87.3361 12.3306 87.3501 12.3026 87.3781 12.3026H93.3141C93.4075 12.3026 93.4541 12.3446 93.4541 12.4286L93.4821 14.2906C93.4821 14.3093 93.4541 14.3233 93.3981 14.3326C93.3515 14.3419 93.3235 14.3326 93.3141 14.3046C93.1648 13.7633 92.9128 13.3619 92.5581 13.1006C92.2035 12.8393 91.7368 12.7086 91.1581 12.7086H90.7381C90.4581 12.7086 90.2528 12.7693 90.1221 12.8906C89.9915 13.0119 89.9261 13.1986 89.9261 13.4506V16.3066H91.0881C91.6295 16.3066 92.0448 16.2133 92.3341 16.0266C92.6235 15.8399 92.7681 15.5786 92.7681 15.2426C92.7681 15.2146 92.7915 15.2006 92.8381 15.2006C92.8941 15.2006 92.9221 15.2146 92.9221 15.2426L92.9081 16.5026L92.9221 17.1746C92.9408 17.4919 92.9501 17.7439 92.9501 17.9306C92.9501 17.9493 92.9221 17.9586 92.8661 17.9586C92.8101 17.9586 92.7821 17.9493 92.7821 17.9306C92.7821 17.5479 92.6328 17.2493 92.3341 17.0346C92.0448 16.8106 91.6248 16.6986 91.0741 16.6986H89.9261V19.8626C89.9261 20.1333 89.9775 20.3339 90.0801 20.4646C90.1828 20.5953 90.3461 20.6606 90.5701 20.6606H91.0321C91.7601 20.6606 92.3435 20.5113 92.7821 20.2126C93.2208 19.9139 93.5428 19.4519 93.7481 18.8266ZM103.839 12.3026C103.867 12.3026 103.881 12.3306 103.881 12.3866C103.881 12.4426 103.867 12.4706 103.839 12.4706C103.503 12.4706 103.181 12.6199 102.873 12.9186C102.565 13.2173 102.317 13.6186 102.131 14.1226L99.5408 21.0386C99.5314 21.0759 99.4801 21.0946 99.3868 21.0946C99.2934 21.0946 99.2421 21.0759 99.2328 21.0386L95.6628 13.4646C95.4948 13.1286 95.3268 12.8813 95.1588 12.7226C94.9908 12.5546 94.8041 12.4706 94.5988 12.4706C94.5708 12.4706 94.5568 12.4426 94.5568 12.3866C94.5568 12.3306 94.5708 12.3026 94.5988 12.3026C94.7388 12.3026 94.8368 12.3073 94.8928 12.3166C95.0794 12.3353 95.3221 12.3446 95.6208 12.3446C96.4234 12.3446 97.1048 12.3353 97.6648 12.3166C97.8141 12.3073 98.0008 12.3026 98.2248 12.3026C98.2528 12.3026 98.2668 12.3306 98.2668 12.3866C98.2668 12.4426 98.2528 12.4706 98.2248 12.4706C97.9448 12.4706 97.7254 12.5313 97.5668 12.6526C97.4174 12.7646 97.3428 12.9279 97.3428 13.1426C97.3428 13.3013 97.3941 13.4926 97.4968 13.7166L99.9188 18.8826L101.739 14.0806C101.832 13.8193 101.879 13.5953 101.879 13.4086C101.879 13.1193 101.79 12.8906 101.613 12.7226C101.445 12.5546 101.197 12.4706 100.871 12.4706C100.843 12.4706 100.829 12.4426 100.829 12.3866C100.829 12.3306 100.843 12.3026 100.871 12.3026L101.557 12.3166C101.949 12.3353 102.299 12.3446 102.607 12.3446C102.784 12.3446 103.003 12.3353 103.265 12.3166L103.839 12.3026ZM112.428 20.8846C112.475 20.8846 112.498 20.9126 112.498 20.9686C112.498 21.0246 112.475 21.0526 112.428 21.0526C112.241 21.0526 111.952 21.0433 111.56 21.0246C111.149 21.0059 110.855 20.9966 110.678 20.9966C110.445 20.9966 110.16 21.0059 109.824 21.0246C109.507 21.0433 109.255 21.0526 109.068 21.0526C109.031 21.0526 109.012 21.0246 109.012 20.9686C109.012 20.9126 109.031 20.8846 109.068 20.8846C109.311 20.8846 109.483 20.8613 109.586 20.8146C109.698 20.7586 109.754 20.6653 109.754 20.5346C109.754 20.3759 109.661 20.1099 109.474 19.7366L108.018 16.8666H105.526L104.532 19.0646C104.411 19.3353 104.35 19.5873 104.35 19.8206C104.35 20.1566 104.467 20.4179 104.7 20.6046C104.943 20.7913 105.265 20.8846 105.666 20.8846C105.713 20.8846 105.736 20.9126 105.736 20.9686C105.736 21.0246 105.713 21.0526 105.666 21.0526C105.498 21.0526 105.255 21.0433 104.938 21.0246C104.583 21.0059 104.275 20.9966 104.014 20.9966C103.762 20.9966 103.459 21.0059 103.104 21.0246C102.787 21.0433 102.53 21.0526 102.334 21.0526C102.297 21.0526 102.278 21.0246 102.278 20.9686C102.278 20.9126 102.297 20.8846 102.334 20.8846C102.595 20.8846 102.815 20.8333 102.992 20.7306C103.169 20.6186 103.347 20.4273 103.524 20.1566C103.701 19.8766 103.911 19.4659 104.154 18.9246L107.192 12.2466C107.211 12.2186 107.253 12.2046 107.318 12.2046C107.393 12.2046 107.435 12.2186 107.444 12.2466L110.944 19.1346C111.271 19.7973 111.541 20.2546 111.756 20.5066C111.971 20.7586 112.195 20.8846 112.428 20.8846ZM105.708 16.4746H107.822L106.702 14.2626L105.708 16.4746ZM122.324 20.8846C122.342 20.8846 122.352 20.9126 122.352 20.9686C122.352 21.0246 122.342 21.0526 122.324 21.0526H119.832C119.626 21.0526 119.244 20.6699 118.684 19.9046C118.124 19.1299 117.447 18.0519 116.654 16.6706C116.579 16.6799 116.472 16.6846 116.332 16.6846C115.968 16.6846 115.711 16.6799 115.562 16.6706V19.9186C115.562 20.2079 115.585 20.4179 115.632 20.5486C115.678 20.6793 115.767 20.7679 115.898 20.8146C116.038 20.8613 116.257 20.8846 116.556 20.8846C116.574 20.8846 116.584 20.9126 116.584 20.9686C116.584 21.0246 116.574 21.0526 116.556 21.0526C116.248 21.0526 116.005 21.0479 115.828 21.0386L114.764 21.0246L113.742 21.0386C113.555 21.0479 113.303 21.0526 112.986 21.0526C112.958 21.0526 112.944 21.0246 112.944 20.9686C112.944 20.9126 112.958 20.8846 112.986 20.8846C113.284 20.8846 113.499 20.8613 113.63 20.8146C113.77 20.7679 113.863 20.6793 113.91 20.5486C113.966 20.4086 113.994 20.1986 113.994 19.9186V13.4366C113.994 13.1566 113.97 12.9513 113.924 12.8206C113.877 12.6899 113.784 12.6013 113.644 12.5546C113.504 12.4986 113.289 12.4706 113 12.4706C112.981 12.4706 112.972 12.4426 112.972 12.3866C112.972 12.3306 112.981 12.3026 113 12.3026L113.742 12.3166C114.171 12.3353 114.512 12.3446 114.764 12.3446C115.034 12.3446 115.333 12.3306 115.66 12.3026C115.762 12.2933 115.893 12.2839 116.052 12.2746C116.22 12.2653 116.416 12.2606 116.64 12.2606C117.498 12.2606 118.161 12.4193 118.628 12.7366C119.104 13.0446 119.342 13.4786 119.342 14.0386C119.342 14.4679 119.211 14.8786 118.95 15.2706C118.688 15.6626 118.348 15.9799 117.928 16.2226C118.674 17.3986 119.3 18.3179 119.804 18.9806C120.317 19.6433 120.77 20.1286 121.162 20.4366C121.563 20.7353 121.95 20.8846 122.324 20.8846ZM115.562 16.2646C115.786 16.3019 116.056 16.3206 116.374 16.3206C116.71 16.3206 116.976 16.2693 117.172 16.1666C117.368 16.0639 117.508 15.8866 117.592 15.6346C117.685 15.3826 117.732 15.0279 117.732 14.5706C117.732 13.8053 117.62 13.2779 117.396 12.9886C117.172 12.6993 116.85 12.5546 116.43 12.5546C116.112 12.5546 115.888 12.6246 115.758 12.7646C115.627 12.9046 115.562 13.1379 115.562 13.4646V16.2646ZM126.751 21.1086C126.452 21.1086 126.098 21.0946 125.687 21.0666C125.538 21.0573 125.351 21.0479 125.127 21.0386C124.912 21.0293 124.67 21.0246 124.399 21.0246L123.363 21.0386C123.176 21.0479 122.924 21.0526 122.607 21.0526C122.588 21.0526 122.579 21.0246 122.579 20.9686C122.579 20.9126 122.588 20.8846 122.607 20.8846C122.906 20.8846 123.125 20.8613 123.265 20.8146C123.405 20.7679 123.498 20.6793 123.545 20.5486C123.601 20.4086 123.629 20.1986 123.629 19.9186V13.4366C123.629 13.1566 123.601 12.9513 123.545 12.8206C123.498 12.6899 123.405 12.6013 123.265 12.5546C123.134 12.4986 122.924 12.4706 122.635 12.4706C122.607 12.4706 122.593 12.4426 122.593 12.3866C122.593 12.3306 122.607 12.3026 122.635 12.3026L123.377 12.3166C123.806 12.3353 124.147 12.3446 124.399 12.3446C124.782 12.3446 125.174 12.3306 125.575 12.3026C126.06 12.2839 126.387 12.2746 126.555 12.2746C127.498 12.2746 128.333 12.4613 129.061 12.8346C129.798 13.2079 130.368 13.7166 130.769 14.3606C131.17 15.0046 131.371 15.7279 131.371 16.5306C131.371 17.4359 131.161 18.2386 130.741 18.9386C130.33 19.6293 129.77 20.1659 129.061 20.5486C128.361 20.9219 127.591 21.1086 126.751 21.1086ZM126.611 20.7866C127.208 20.7866 127.736 20.6373 128.193 20.3386C128.65 20.0306 129.005 19.5779 129.257 18.9806C129.518 18.3833 129.649 17.6693 129.649 16.8386C129.649 16.0453 129.528 15.3266 129.285 14.6826C129.042 14.0293 128.697 13.5159 128.249 13.1426C127.801 12.7693 127.283 12.5826 126.695 12.5826C126.116 12.5826 125.72 12.6386 125.505 12.7506C125.29 12.8626 125.183 13.1006 125.183 13.4646V19.7646C125.183 20.1379 125.281 20.4039 125.477 20.5626C125.673 20.7119 126.051 20.7866 126.611 20.7866ZM63.4661 37.8846C63.4848 37.8846 63.4941 37.9126 63.4941 37.9686C63.4941 38.0246 63.4848 38.0526 63.4661 38.0526H60.9741C60.7688 38.0526 60.3861 37.6699 59.8261 36.9046C59.2661 36.1299 58.5895 35.0519 57.7961 33.6706C57.7215 33.6799 57.6141 33.6846 57.4741 33.6846C57.1101 33.6846 56.8535 33.6799 56.7041 33.6706V36.9186C56.7041 37.2079 56.7275 37.4179 56.7741 37.5486C56.8208 37.6793 56.9095 37.7679 57.0401 37.8146C57.1801 37.8613 57.3995 37.8846 57.6981 37.8846C57.7168 37.8846 57.7261 37.9126 57.7261 37.9686C57.7261 38.0246 57.7168 38.0526 57.6981 38.0526C57.3901 38.0526 57.1475 38.0479 56.9701 38.0386L55.9061 38.0246L54.8841 38.0386C54.6975 38.0479 54.4455 38.0526 54.1281 38.0526C54.1001 38.0526 54.0861 38.0246 54.0861 37.9686C54.0861 37.9126 54.1001 37.8846 54.1281 37.8846C54.4268 37.8846 54.6415 37.8613 54.7721 37.8146C54.9121 37.7679 55.0055 37.6793 55.0521 37.5486C55.1081 37.4086 55.1361 37.1986 55.1361 36.9186V30.4366C55.1361 30.1566 55.1128 29.9513 55.0661 29.8206C55.0195 29.6899 54.9261 29.6013 54.7861 29.5546C54.6461 29.4986 54.4315 29.4706 54.1421 29.4706C54.1235 29.4706 54.1141 29.4426 54.1141 29.3866C54.1141 29.3306 54.1235 29.3026 54.1421 29.3026L54.8841 29.3166C55.3135 29.3353 55.6541 29.3446 55.9061 29.3446C56.1768 29.3446 56.4755 29.3306 56.8021 29.3026C56.9048 29.2933 57.0355 29.2839 57.1941 29.2746C57.3621 29.2653 57.5581 29.2606 57.7821 29.2606C58.6408 29.2606 59.3035 29.4193 59.7701 29.7366C60.2461 30.0446 60.4841 30.4786 60.4841 31.0386C60.4841 31.4679 60.3535 31.8786 60.0921 32.2706C59.8308 32.6626 59.4901 32.9799 59.0701 33.2226C59.8168 34.3986 60.4421 35.3179 60.9461 35.9806C61.4595 36.6433 61.9121 37.1286 62.3041 37.4366C62.7055 37.7353 63.0928 37.8846 63.4661 37.8846ZM56.7041 33.2646C56.9281 33.3019 57.1988 33.3206 57.5161 33.3206C57.8521 33.3206 58.1181 33.2693 58.3141 33.1666C58.5101 33.0639 58.6501 32.8866 58.7341 32.6346C58.8275 32.3826 58.8741 32.0279 58.8741 31.5706C58.8741 30.8053 58.7621 30.2779 58.5381 29.9886C58.3141 29.6993 57.9921 29.5546 57.5721 29.5546C57.2548 29.5546 57.0308 29.6246 56.9001 29.7646C56.7695 29.9046 56.7041 30.1379 56.7041 30.4646V33.2646ZM70.2735 35.8266C70.2735 35.8079 70.2922 35.7986 70.3295 35.7986C70.3575 35.7986 70.3809 35.8079 70.3995 35.8266C70.4275 35.8359 70.4415 35.8453 70.4415 35.8546C70.3482 36.5826 70.3015 37.2453 70.3015 37.8426C70.3015 37.9173 70.2875 37.9733 70.2595 38.0106C70.2315 38.0386 70.1755 38.0526 70.0915 38.0526H63.9035C63.8755 38.0526 63.8615 38.0246 63.8615 37.9686C63.8615 37.9126 63.8755 37.8846 63.9035 37.8846C64.2022 37.8846 64.4169 37.8613 64.5475 37.8146C64.6875 37.7679 64.7809 37.6793 64.8275 37.5486C64.8742 37.4086 64.8975 37.1986 64.8975 36.9186V30.4366C64.8975 30.1566 64.8742 29.9513 64.8275 29.8206C64.7809 29.6899 64.6875 29.6013 64.5475 29.5546C64.4075 29.4986 64.1929 29.4706 63.9035 29.4706C63.8755 29.4706 63.8615 29.4426 63.8615 29.3866C63.8615 29.3306 63.8755 29.3026 63.9035 29.3026H69.8395C69.9329 29.3026 69.9795 29.3446 69.9795 29.4286L70.0075 31.2906C70.0075 31.3093 69.9795 31.3233 69.9235 31.3326C69.8769 31.3419 69.8489 31.3326 69.8395 31.3046C69.6902 30.7633 69.4382 30.3619 69.0835 30.1006C68.7289 29.8393 68.2622 29.7086 67.6835 29.7086H67.2635C66.9835 29.7086 66.7782 29.7693 66.6475 29.8906C66.5169 30.0119 66.4515 30.1986 66.4515 30.4506V33.3066H67.6135C68.1549 33.3066 68.5702 33.2133 68.8595 33.0266C69.1489 32.8399 69.2935 32.5786 69.2935 32.2426C69.2935 32.2146 69.3169 32.2006 69.3635 32.2006C69.4195 32.2006 69.4475 32.2146 69.4475 32.2426L69.4335 33.5026L69.4475 34.1746C69.4662 34.4919 69.4755 34.7439 69.4755 34.9306C69.4755 34.9493 69.4475 34.9586 69.3915 34.9586C69.3355 34.9586 69.3075 34.9493 69.3075 34.9306C69.3075 34.5479 69.1582 34.2493 68.8595 34.0346C68.5702 33.8106 68.1502 33.6986 67.5995 33.6986H66.4515V36.8626C66.4515 37.1333 66.5029 37.3339 66.6055 37.4646C66.7082 37.5953 66.8715 37.6606 67.0955 37.6606H67.5575C68.2855 37.6606 68.8689 37.5113 69.3075 37.2126C69.7462 36.9139 70.0682 36.4519 70.2735 35.8266ZM73.4901 30.7166C73.4901 31.0526 73.5741 31.3513 73.7421 31.6126C73.9195 31.8739 74.1341 32.1026 74.3861 32.2986C74.6381 32.4946 74.9788 32.7326 75.4081 33.0126C75.8748 33.3113 76.2481 33.5726 76.5281 33.7966C76.8081 34.0206 77.0461 34.2959 77.2421 34.6226C77.4381 34.9399 77.5361 35.3086 77.5361 35.7286C77.5361 36.2139 77.4055 36.6479 77.1441 37.0306C76.8828 37.4039 76.5188 37.6979 76.0521 37.9126C75.5948 38.1179 75.0815 38.2206 74.5121 38.2206C74.0921 38.2206 73.6535 38.1646 73.1961 38.0526C72.7388 37.9313 72.4308 37.8006 72.2721 37.6606C72.2255 37.6233 72.1881 37.5906 72.1601 37.5626C72.1415 37.5253 72.1321 37.4693 72.1321 37.3946L72.0901 35.1686V35.1546C72.0901 35.1173 72.1135 35.0986 72.1601 35.0986C72.2068 35.0893 72.2348 35.1033 72.2441 35.1406C72.5241 35.7099 72.7668 36.1719 72.9721 36.5266C73.1868 36.8813 73.4528 37.1939 73.7701 37.4646C74.0968 37.7353 74.4655 37.8706 74.8761 37.8706C75.2495 37.8706 75.5575 37.7726 75.8001 37.5766C76.0428 37.3713 76.1641 37.0259 76.1641 36.5406C76.1641 36.1299 76.0708 35.7706 75.8841 35.4626C75.7068 35.1546 75.4875 34.8933 75.2261 34.6786C74.9648 34.4639 74.6055 34.2073 74.1481 33.9086C73.7001 33.6193 73.3501 33.3719 73.0981 33.1666C72.8555 32.9613 72.6455 32.7139 72.4681 32.4246C72.2908 32.1353 72.2021 31.7946 72.2021 31.4026C72.2021 30.9079 72.3421 30.4926 72.6221 30.1566C72.9115 29.8113 73.2801 29.5593 73.7281 29.4006C74.1761 29.2326 74.6475 29.1486 75.1421 29.1486C75.4688 29.1486 75.8001 29.1813 76.1361 29.2466C76.4721 29.3026 76.7428 29.3726 76.9481 29.4566C77.0321 29.4939 77.0881 29.5359 77.1161 29.5826C77.1441 29.6199 77.1581 29.6713 77.1581 29.7366V31.7946C77.1581 31.8226 77.1348 31.8459 77.0881 31.8646C77.0415 31.8739 77.0135 31.8646 77.0041 31.8366L76.8921 31.5706C76.6588 30.9826 76.3835 30.4833 76.0661 30.0726C75.7581 29.6619 75.3241 29.4566 74.7641 29.4566C74.3908 29.4566 74.0828 29.5639 73.8401 29.7786C73.6068 29.9933 73.4901 30.3059 73.4901 30.7166ZM81.4372 36.9186C81.4372 37.2079 81.4606 37.4179 81.5072 37.5486C81.5539 37.6793 81.6426 37.7679 81.7732 37.8146C81.9132 37.8613 82.1326 37.8846 82.4312 37.8846C82.4592 37.8846 82.4732 37.9126 82.4732 37.9686C82.4732 38.0246 82.4592 38.0526 82.4312 38.0526C82.1232 38.0526 81.8806 38.0479 81.7032 38.0386L80.6392 38.0246L79.6032 38.0386C79.4166 38.0479 79.1646 38.0526 78.8472 38.0526C78.8286 38.0526 78.8192 38.0246 78.8192 37.9686C78.8192 37.9126 78.8286 37.8846 78.8472 37.8846C79.1459 37.8846 79.3652 37.8613 79.5052 37.8146C79.6452 37.7679 79.7386 37.6793 79.7852 37.5486C79.8412 37.4086 79.8692 37.1986 79.8692 36.9186V30.4366C79.8692 30.1566 79.8412 29.9513 79.7852 29.8206C79.7386 29.6899 79.6452 29.6013 79.5052 29.5546C79.3652 29.4986 79.1459 29.4706 78.8472 29.4706C78.8286 29.4706 78.8192 29.4426 78.8192 29.3866C78.8192 29.3306 78.8286 29.3026 78.8472 29.3026L79.6032 29.3166C80.0326 29.3353 80.3779 29.3446 80.6392 29.3446C80.9286 29.3446 81.2879 29.3353 81.7172 29.3166L82.4312 29.3026C82.4592 29.3026 82.4732 29.3306 82.4732 29.3866C82.4732 29.4426 82.4592 29.4706 82.4312 29.4706C82.1419 29.4706 81.9272 29.4986 81.7872 29.5546C81.6472 29.6106 81.5539 29.7086 81.5072 29.8486C81.4606 29.9793 81.4372 30.1846 81.4372 30.4646V36.9186ZM87.6084 38.1086C87.3097 38.1086 86.955 38.0946 86.5444 38.0666C86.395 38.0573 86.2084 38.0479 85.9844 38.0386C85.7697 38.0293 85.527 38.0246 85.2564 38.0246L84.2204 38.0386C84.0337 38.0479 83.7817 38.0526 83.4644 38.0526C83.4457 38.0526 83.4364 38.0246 83.4364 37.9686C83.4364 37.9126 83.4457 37.8846 83.4644 37.8846C83.763 37.8846 83.9824 37.8613 84.1224 37.8146C84.2624 37.7679 84.3557 37.6793 84.4024 37.5486C84.4584 37.4086 84.4864 37.1986 84.4864 36.9186V30.4366C84.4864 30.1566 84.4584 29.9513 84.4024 29.8206C84.3557 29.6899 84.2624 29.6013 84.1224 29.5546C83.9917 29.4986 83.7817 29.4706 83.4924 29.4706C83.4644 29.4706 83.4504 29.4426 83.4504 29.3866C83.4504 29.3306 83.4644 29.3026 83.4924 29.3026L84.2344 29.3166C84.6637 29.3353 85.0044 29.3446 85.2564 29.3446C85.639 29.3446 86.031 29.3306 86.4324 29.3026C86.9177 29.2839 87.2444 29.2746 87.4124 29.2746C88.355 29.2746 89.1904 29.4613 89.9184 29.8346C90.6557 30.2079 91.225 30.7166 91.6264 31.3606C92.0277 32.0046 92.2284 32.7279 92.2284 33.5306C92.2284 34.4359 92.0184 35.2386 91.5984 35.9386C91.1877 36.6293 90.6277 37.1659 89.9184 37.5486C89.2184 37.9219 88.4484 38.1086 87.6084 38.1086ZM87.4684 37.7866C88.0657 37.7866 88.593 37.6373 89.0504 37.3386C89.5077 37.0306 89.8624 36.5779 90.1144 35.9806C90.3757 35.3833 90.5064 34.6693 90.5064 33.8386C90.5064 33.0453 90.385 32.3266 90.1424 31.6826C89.8997 31.0293 89.5544 30.5159 89.1064 30.1426C88.6584 29.7693 88.1404 29.5826 87.5524 29.5826C86.9737 29.5826 86.577 29.6386 86.3624 29.7506C86.1477 29.8626 86.0404 30.1006 86.0404 30.4646V36.7646C86.0404 37.1379 86.1384 37.4039 86.3344 37.5626C86.5304 37.7119 86.9084 37.7866 87.4684 37.7866ZM99.8595 35.8266C99.8595 35.8079 99.8781 35.7986 99.9155 35.7986C99.9435 35.7986 99.9668 35.8079 99.9855 35.8266C100.013 35.8359 100.027 35.8453 100.027 35.8546C99.9341 36.5826 99.8875 37.2453 99.8875 37.8426C99.8875 37.9173 99.8735 37.9733 99.8455 38.0106C99.8175 38.0386 99.7615 38.0526 99.6775 38.0526H93.4895C93.4615 38.0526 93.4475 38.0246 93.4475 37.9686C93.4475 37.9126 93.4615 37.8846 93.4895 37.8846C93.7881 37.8846 94.0028 37.8613 94.1335 37.8146C94.2735 37.7679 94.3668 37.6793 94.4135 37.5486C94.4601 37.4086 94.4835 37.1986 94.4835 36.9186V30.4366C94.4835 30.1566 94.4601 29.9513 94.4135 29.8206C94.3668 29.6899 94.2735 29.6013 94.1335 29.5546C93.9935 29.4986 93.7788 29.4706 93.4895 29.4706C93.4615 29.4706 93.4475 29.4426 93.4475 29.3866C93.4475 29.3306 93.4615 29.3026 93.4895 29.3026H99.4255C99.5188 29.3026 99.5655 29.3446 99.5655 29.4286L99.5935 31.2906C99.5935 31.3093 99.5655 31.3233 99.5095 31.3326C99.4628 31.3419 99.4348 31.3326 99.4255 31.3046C99.2761 30.7633 99.0241 30.3619 98.6695 30.1006C98.3148 29.8393 97.8481 29.7086 97.2695 29.7086H96.8495C96.5695 29.7086 96.3641 29.7693 96.2335 29.8906C96.1028 30.0119 96.0375 30.1986 96.0375 30.4506V33.3066H97.1995C97.7408 33.3066 98.1561 33.2133 98.4455 33.0266C98.7348 32.8399 98.8795 32.5786 98.8795 32.2426C98.8795 32.2146 98.9028 32.2006 98.9495 32.2006C99.0055 32.2006 99.0335 32.2146 99.0335 32.2426L99.0195 33.5026L99.0335 34.1746C99.0521 34.4919 99.0615 34.7439 99.0615 34.9306C99.0615 34.9493 99.0335 34.9586 98.9775 34.9586C98.9215 34.9586 98.8935 34.9493 98.8935 34.9306C98.8935 34.5479 98.7441 34.2493 98.4455 34.0346C98.1561 33.8106 97.7361 33.6986 97.1855 33.6986H96.0375V36.8626C96.0375 37.1333 96.0888 37.3339 96.1915 37.4646C96.2941 37.5953 96.4575 37.6606 96.6815 37.6606H97.1435C97.8715 37.6606 98.4548 37.5113 98.8935 37.2126C99.3321 36.9139 99.6541 36.4519 99.8595 35.8266ZM110.762 29.3026C110.781 29.3026 110.79 29.3306 110.79 29.3866C110.79 29.4426 110.781 29.4706 110.762 29.4706C110.389 29.4706 110.095 29.6199 109.88 29.9186C109.665 30.2079 109.558 30.5999 109.558 31.0946V38.2626C109.558 38.2906 109.535 38.3093 109.488 38.3186C109.451 38.3279 109.423 38.3233 109.404 38.3046L102.838 30.8286V36.2746C102.838 36.7693 102.941 37.1613 103.146 37.4506C103.351 37.7399 103.636 37.8846 104 37.8846C104.019 37.8846 104.028 37.9126 104.028 37.9686C104.028 38.0246 104.019 38.0526 104 38.0526C103.739 38.0526 103.538 38.0479 103.398 38.0386L102.642 38.0246L101.774 38.0386C101.615 38.0479 101.387 38.0526 101.088 38.0526C101.06 38.0526 101.046 38.0246 101.046 37.9686C101.046 37.9126 101.06 37.8846 101.088 37.8846C101.499 37.8846 101.821 37.7399 102.054 37.4506C102.297 37.1613 102.418 36.7693 102.418 36.2746V30.3526C102.11 30.0166 101.844 29.7879 101.62 29.6666C101.405 29.5359 101.181 29.4706 100.948 29.4706C100.929 29.4706 100.92 29.4426 100.92 29.3866C100.92 29.3306 100.929 29.3026 100.948 29.3026L101.536 29.3166C101.657 29.3259 101.835 29.3306 102.068 29.3306L103.132 29.3166C103.263 29.3073 103.421 29.3026 103.608 29.3026C103.683 29.3026 103.739 29.3213 103.776 29.3586C103.813 29.3959 103.879 29.4753 103.972 29.5966C104.131 29.8113 104.243 29.9559 104.308 30.0306L109.152 35.6166V31.0946C109.152 30.5906 109.049 30.1939 108.844 29.9046C108.639 29.6153 108.354 29.4706 107.99 29.4706C107.971 29.4706 107.962 29.4426 107.962 29.3866C107.962 29.3306 107.971 29.3026 107.99 29.3026L108.592 29.3166C108.891 29.3353 109.143 29.3446 109.348 29.3446C109.535 29.3446 109.796 29.3353 110.132 29.3166L110.762 29.3026ZM116.829 29.1486C117.24 29.1486 117.669 29.1859 118.117 29.2606C118.565 29.3259 118.915 29.4146 119.167 29.5266C119.251 29.5546 119.302 29.5919 119.321 29.6386C119.349 29.6759 119.372 29.7459 119.391 29.8486L119.559 31.7946C119.559 31.8226 119.536 31.8413 119.489 31.8506C119.442 31.8599 119.414 31.8459 119.405 31.8086C119.088 31.0713 118.663 30.5019 118.131 30.1006C117.599 29.6993 116.983 29.4986 116.283 29.4986C115.359 29.4986 114.645 29.8393 114.141 30.5206C113.637 31.2019 113.385 32.1166 113.385 33.2646C113.385 34.1233 113.52 34.9073 113.791 35.6166C114.071 36.3259 114.458 36.8906 114.953 37.3106C115.457 37.7213 116.026 37.9266 116.661 37.9266C117.258 37.9266 117.79 37.7306 118.257 37.3386C118.733 36.9373 119.158 36.3306 119.531 35.5186C119.54 35.4813 119.568 35.4673 119.615 35.4766C119.671 35.4859 119.699 35.5046 119.699 35.5326L119.489 37.4366C119.47 37.5486 119.447 37.6233 119.419 37.6606C119.4 37.6886 119.349 37.7213 119.265 37.7586C118.434 38.0666 117.58 38.2206 116.703 38.2206C115.564 38.2206 114.612 37.9966 113.847 37.5486C113.082 37.0913 112.517 36.5173 112.153 35.8266C111.798 35.1266 111.621 34.3986 111.621 33.6426C111.621 32.7559 111.859 31.9719 112.335 31.2906C112.82 30.6093 113.46 30.0819 114.253 29.7086C115.056 29.3353 115.914 29.1486 116.829 29.1486ZM127.244 35.8266C127.244 35.8079 127.263 35.7986 127.3 35.7986C127.328 35.7986 127.352 35.8079 127.37 35.8266C127.398 35.8359 127.412 35.8453 127.412 35.8546C127.319 36.5826 127.272 37.2453 127.272 37.8426C127.272 37.9173 127.258 37.9733 127.23 38.0106C127.202 38.0386 127.146 38.0526 127.062 38.0526H120.874C120.846 38.0526 120.832 38.0246 120.832 37.9686C120.832 37.9126 120.846 37.8846 120.874 37.8846C121.173 37.8846 121.388 37.8613 121.518 37.8146C121.658 37.7679 121.752 37.6793 121.798 37.5486C121.845 37.4086 121.868 37.1986 121.868 36.9186V30.4366C121.868 30.1566 121.845 29.9513 121.798 29.8206C121.752 29.6899 121.658 29.6013 121.518 29.5546C121.378 29.4986 121.164 29.4706 120.874 29.4706C120.846 29.4706 120.832 29.4426 120.832 29.3866C120.832 29.3306 120.846 29.3026 120.874 29.3026H126.81C126.904 29.3026 126.95 29.3446 126.95 29.4286L126.978 31.2906C126.978 31.3093 126.95 31.3233 126.894 31.3326C126.848 31.3419 126.82 31.3326 126.81 31.3046C126.661 30.7633 126.409 30.3619 126.054 30.1006C125.7 29.8393 125.233 29.7086 124.654 29.7086H124.234C123.954 29.7086 123.749 29.7693 123.618 29.8906C123.488 30.0119 123.422 30.1986 123.422 30.4506V33.3066H124.584C125.126 33.3066 125.541 33.2133 125.83 33.0266C126.12 32.8399 126.264 32.5786 126.264 32.2426C126.264 32.2146 126.288 32.2006 126.334 32.2006C126.39 32.2006 126.418 32.2146 126.418 32.2426L126.404 33.5026L126.418 34.1746C126.437 34.4919 126.446 34.7439 126.446 34.9306C126.446 34.9493 126.418 34.9586 126.362 34.9586C126.306 34.9586 126.278 34.9493 126.278 34.9306C126.278 34.5479 126.129 34.2493 125.83 34.0346C125.541 33.8106 125.121 33.6986 124.57 33.6986H123.422V36.8626C123.422 37.1333 123.474 37.3339 123.576 37.4646C123.679 37.5953 123.842 37.6606 124.066 37.6606H124.528C125.256 37.6606 125.84 37.5113 126.278 37.2126C126.717 36.9139 127.039 36.4519 127.244 35.8266Z" fill="white"/>
</svg>
