<svg xmlns="http://www.w3.org/2000/svg" width="55" height="55" viewBox="0 0 55 55" fill="none">
<rect width="55" height="55" fill="#CFC273"/>
<path d="M36.9324 30.7386L38.5124 29.1193L36.9324 27.5L32.9881 31.5425L23.5194 21.8383L27.4638 17.7958L25.8838 16.1765L24.3039 17.7958L22.7239 16.1765L20.3595 18.5997L18.7796 16.9805L17.1996 18.5997L18.7796 20.219L16.4152 22.6422L17.9951 24.2615L16.4152 25.8808L17.9951 27.5L21.9395 23.4575L31.4081 33.1618L27.4638 37.2043L29.0437 38.8236L30.6237 37.2043L32.2036 38.8236L34.568 36.4003L36.148 38.0196L37.7279 36.4003L36.148 34.7811L38.5124 32.3578L36.9324 30.7386Z" fill="#16244A"/>
</svg>