<svg xmlns="http://www.w3.org/2000/svg" width="55" height="55" viewBox="0 0 55 55" fill="none">
<rect width="55" height="55" fill="#CFC273"/>
<path fill-rule="evenodd" clip-rule="evenodd" d="M21.8867 33.8628V41.4118H33.6719V33.8628H41.0376V21.7844H33.6719V14.2354H21.8867V21.7844H14.521V33.8628H21.8867ZM29.6208 22.1641H27.6836C27.6151 22.1608 27.5467 22.1729 27.4832 22.1996C26.8682 22.5068 26.4822 23.0496 26.2458 23.6928C26.2016 23.8113 26.164 23.9313 26.1309 24.0513H24.615C24.6754 23.7592 24.7572 23.4572 24.8676 23.159C25.1932 22.2751 25.7876 21.3677 26.8372 20.8423C27.1021 20.7146 27.3917 20.6501 27.6843 20.6535H29.6215C29.8168 20.6535 30.0042 20.7331 30.1423 20.8746C30.2805 21.0162 30.3581 21.2082 30.3581 21.4084C30.3581 21.6086 30.2805 21.8007 30.1423 21.9422C30.0042 22.0838 29.8168 22.1633 29.6215 22.1633L29.6208 22.1641ZM23.3599 24.8062C22.9533 24.8062 22.6137 25.1505 22.7242 25.5521C23.1492 27.1064 24.8794 28.3158 27.0427 28.5423V29.7184C26.5308 29.7312 25.999 29.7735 25.5475 29.9079C25.1954 30.0136 24.822 30.1932 24.5362 30.5224C24.2371 30.8666 24.0965 31.3014 24.0965 31.7868C24.0965 32.2722 24.2364 32.7078 24.5354 33.0528C24.8212 33.3827 25.1947 33.5639 25.5475 33.6695C25.7832 33.7398 26.041 33.785 26.3062 33.8137V32.2941C26.1892 32.2778 26.0735 32.2531 25.96 32.2201C25.7611 32.1597 25.6735 32.0933 25.6374 32.051C25.6138 32.0239 25.5696 31.9627 25.5696 31.7868C25.5696 31.6132 25.6138 31.5528 25.6359 31.5264C25.6727 31.4841 25.7596 31.4169 25.96 31.3573C26.2421 31.2735 26.606 31.2418 27.0427 31.2297V35.3749H24.833V36.8847H30.7256V35.3749H28.5159V31.195C29.3276 31.1301 29.9854 30.9474 30.4803 30.6205C31.1764 30.16 31.4622 29.4753 31.4622 28.7483C31.468 28.3601 31.374 27.9771 31.1897 27.6379C32.0176 27.1019 32.609 26.3757 32.8344 25.5521C32.9449 25.1505 32.6061 24.8062 32.1988 24.8062H23.3599ZM28.5159 29.6791C29.1118 29.6203 29.4734 29.4889 29.6819 29.3515C29.9065 29.2028 29.989 29.0284 29.989 28.7483C29.989 28.5362 29.9419 28.392 29.8204 28.2728C29.3955 28.4062 28.9588 28.4965 28.5166 28.5423L28.5159 29.6791Z" fill="#0C2047"/>
</svg>