<svg width="55" height="55" viewBox="0 0 55 55" fill="none" xmlns="http://www.w3.org/2000/svg">
<path d="M55 0H0V55H55V0Z" fill="#CFC273"/>
<mask id="mask0_0_1" style="mask-type:luminance" maskUnits="userSpaceOnUse" x="13" y="14" width="28" height="28">
<path d="M41 14H13V42H41V14Z" fill="white"/>
</mask>
<g mask="url(#mask0_0_1)">
<path d="M40.352 37.667H34.5496C34.3467 37.667 34.1608 37.6189 34.0022 37.5276C33.9962 37.5232 33.988 37.5199 33.982 37.5166C33.8316 37.4253 33.7031 37.2919 33.6052 37.1229C33.6003 37.1152 33.5959 37.1076 33.591 37.0994L29.9313 30.7606L29.9296 30.7589L29.9313 30.7573C29.6398 30.2536 29.2417 29.8549 28.767 29.5809C28.2928 29.3064 27.7487 29.1609 27.1657 29.1593V32.3897C27.1657 32.9043 26.9656 33.3959 26.6079 33.7645C26.6899 33.8406 26.7627 33.9319 26.8234 34.0374L30.4973 40.4009C30.5017 40.4085 30.5066 40.4178 30.5126 40.4255C30.8024 40.9182 31.1962 41.3092 31.661 41.5772V41.5788C32.1352 41.8534 32.681 41.9988 33.2639 41.9988H40.3514C40.5931 41.9988 40.7884 41.8036 40.7884 41.5619V38.1034C40.7889 37.8623 40.5937 37.667 40.352 37.667Z" fill="#0C2047"/>
<path d="M21.6988 29.6171C21.6988 29.3305 21.5823 29.0697 21.3936 28.881C21.2044 28.6918 20.9441 28.5742 20.6575 28.5742C20.371 28.5742 20.1117 28.6918 19.9225 28.881C19.7333 29.0702 19.6157 29.3305 19.6157 29.6171V33.4939H21.6993L21.6988 29.6171Z" fill="#0C2047"/>
<path d="M15.0234 32.3902C15.0234 32.6943 15.1476 32.9699 15.3461 33.1701C15.5463 33.3702 15.8219 33.4938 16.1259 33.4938H18.7395V29.617C18.7395 29.0882 18.9549 28.6091 19.3022 28.2624C19.6495 27.9157 20.1302 27.6997 20.6568 27.6997C21.1834 27.6997 21.6647 27.9151 22.0114 28.2624C22.3581 28.6097 22.5741 29.0887 22.5741 29.617V33.4938H25.1877C25.4917 33.4938 25.7673 33.3697 25.9675 33.1701C26.166 32.9699 26.2902 32.6943 26.2902 32.3902V25.639H15.0234V32.3902Z" fill="#0C2047"/>
<path d="M15.0234 34.032V41.5625C15.0234 41.8042 15.2187 41.9994 15.4604 41.9994H17.0879C17.328 41.9994 17.5248 41.8042 17.5248 41.5625V34.3683H16.1248C15.7284 34.3683 15.3455 34.2485 15.0234 34.032Z" fill="#0C2047"/>
<path d="M23.7883 34.3683V41.5625C23.7883 41.8042 23.9852 41.9994 24.2253 41.9994H25.8528C26.0945 41.9994 26.2897 41.8042 26.2897 41.5625V34.032C25.9671 34.2491 25.5843 34.3683 25.1878 34.3683H23.7883Z" fill="#0C2047"/>
<path d="M27.6651 24.763C27.7909 24.763 27.9145 24.7088 27.9998 24.6049C28.1545 24.4206 28.1283 24.1461 27.944 23.9924L24.4391 21.0798L21.0938 18.2989V17.2402L22.3681 16.865L23.9524 16.4002C24.0918 16.3613 24.2099 16.2531 24.2531 16.1043C24.3215 15.8735 24.1897 15.6302 23.9573 15.5618L22.3681 15.097L21.0938 14.7207V14.4374C21.0938 14.1957 20.8986 14.0005 20.6569 14.0005C20.4152 14.0005 20.2199 14.1957 20.2199 14.4374V18.2989L16.8747 21.0798L13.4004 23.9662C13.2856 24.0455 13.2112 24.1767 13.2112 24.3271C13.2112 24.5688 13.4064 24.7641 13.6481 24.7641H27.6651V24.763Z" fill="#0C2047"/>
<path d="M21.6987 35.5326H19.6151V34.3683H18.739V41.5624C18.739 41.8041 18.9359 41.9994 19.1776 41.9994C19.4193 41.9994 19.6146 41.8041 19.6146 41.5624V39.2032H21.6982V41.5624C21.6982 41.8041 21.895 41.9994 22.1351 41.9994C22.3768 41.9994 22.5737 41.8041 22.5737 41.5624V34.3683H21.6976V35.5326H21.6987ZM21.6987 38.3288H19.6151V36.4065H21.6987V38.3288Z" fill="#0C2047"/>
</g>
</svg>
