<svg xmlns="http://www.w3.org/2000/svg" width="55" height="55" viewBox="0 0 55 55" fill="none">
<rect width="55" height="55" fill="#CFC273"/>
<path d="M21.3396 42.0588V28.7375C20.1232 28.3978 19.1033 27.7184 18.28 26.6993C17.4566 25.6801 17.0454 24.4912 17.0464 23.1323V12.9412H19.9085V23.1323H21.3396V12.9412H24.2017V23.1323H25.6327V12.9412H28.4948V23.1323C28.4948 24.4912 28.0832 25.6801 27.2598 26.6993C26.4365 27.7184 25.4171 28.3978 24.2017 28.7375V42.0588H21.3396ZM35.6501 42.0588V30.4118H31.357V20.2206C31.357 18.2066 32.0548 16.4896 33.4506 15.0697C34.8464 13.6497 36.5336 12.9402 38.5122 12.9412V42.0588H35.6501Z" fill="#0C2047"/>
</svg>