<svg xmlns="http://www.w3.org/2000/svg" width="55" height="55" viewBox="0 0 55 55" fill="none">
  <rect width="55" height="55" fill="#CFC273"/>
  <path d="M14.521 26.1654V37.5091C14.521 37.8778 14.8177 38.1764 15.1839 38.1764H18.4985V24.8308H15.8468C15.1147 24.8308 14.521 25.4285 14.521 26.1654ZM29.4366 24.1636H28.4422V22.4954C28.4422 22.311 28.2939 22.1617 28.1108 22.1617H27.4479C27.2647 22.1617 27.1164 22.311 27.1164 22.4954V25.1645C27.1164 25.3488 27.2647 25.4981 27.4479 25.4981H29.4366C29.6197 25.4981 29.7681 25.3488 29.7681 25.1645V24.4972C29.7681 24.3129 29.6197 24.1636 29.4366 24.1636ZM35.1439 21.4961L28.5147 17.0474C28.2969 16.9014 28.041 16.8235 27.7793 16.8235C27.5176 16.8235 27.2617 16.9014 27.0439 17.0474L20.4147 21.4961C20.2332 21.618 20.0843 21.783 19.9813 21.9767C19.8783 22.1704 19.8244 22.3866 19.8243 22.6063V38.1764H25.1277V32.1709C25.1277 31.8022 25.4243 31.5036 25.7906 31.5036H29.7681C30.1343 31.5036 30.431 31.8022 30.431 32.1709V38.1764H35.7343V22.6067C35.7343 22.1605 35.5126 21.7434 35.1439 21.4961ZM27.7793 27.5C25.9488 27.5 24.4647 26.0061 24.4647 24.1636C24.4647 22.321 25.9488 20.8272 27.7793 20.8272C29.6098 20.8272 31.0939 22.321 31.0939 24.1636C31.0939 26.0061 29.6098 27.5 27.7793 27.5ZM39.7118 24.8308H37.0601V38.1764H40.3747C40.741 38.1764 41.0376 37.8778 41.0376 37.5091V26.1654C41.0376 25.4285 40.4439 24.8308 39.7118 24.8308Z" fill="#16244A" fill-opacity="0.93"/>
</svg>