<svg xmlns="http://www.w3.org/2000/svg" width="55" height="55" viewBox="0 0 55 55" fill="none">
<rect width="55" height="55" fill="#CFC273"/>
<path d="M23.2654 33.9058C22.1252 33.9058 21.2027 34.8667 21.2027 36.0411C21.2027 37.2155 22.1252 38.1764 23.2654 38.1764C24.4055 38.1764 25.3384 37.2155 25.3384 36.0411C25.3384 34.8667 24.4055 33.9058 23.2654 33.9058ZM17.0464 18.9588H19.1194L22.8508 27.0622L19.762 32.8382H35.7033V30.7029H23.2654L24.4055 28.5676H33.3609L38.5122 18.9588H21.41L20.4357 16.8235H17.0464V18.9588ZM33.6303 33.9058C32.4902 33.9058 31.5677 34.8667 31.5677 36.0411C31.5677 37.2155 32.4902 38.1764 33.6303 38.1764C34.7705 38.1764 35.7033 37.2155 35.7033 36.0411C35.7033 34.8667 34.7705 33.9058 33.6303 33.9058Z" fill="#0C2047"/>
</svg>