<svg width="42" height="42" viewBox="0 0 42 42" fill="none" xmlns="http://www.w3.org/2000/svg">
<path fill-rule="evenodd" clip-rule="evenodd" d="M14 18.053V16.75C14 14.9598 14.7112 13.2429 15.977 11.977C17.2429 10.7112 18.9598 10 20.75 10C22.5402 10 24.2571 10.7112 25.523 11.977C26.7888 13.2429 27.5 14.9598 27.5 16.75V18.053C27.727 18.069 27.94 18.089 28.142 18.117C29.042 18.237 29.8 18.497 30.402 19.098C31.004 19.7 31.262 20.458 31.384 21.358C31.5 22.225 31.5 23.328 31.5 24.695V24.805C31.5 26.172 31.5 27.275 31.384 28.142C31.262 29.042 31.004 29.8 30.402 30.402C29.8 31.004 29.042 31.262 28.142 31.384C27.275 31.5 26.172 31.5 24.805 31.5H16.695C15.328 31.5 14.225 31.5 13.358 31.384C12.458 31.262 11.7 31.004 11.098 30.402C10.496 29.8 10.238 29.042 10.117 28.142C10 27.275 10 26.172 10 24.805V24.695C10 23.328 10 22.225 10.117 21.358C10.237 20.458 10.497 19.7 11.098 19.098C11.7 18.496 12.458 18.238 13.358 18.117C13.5712 18.0884 13.7853 18.0671 14 18.053ZM15.5 16.75C15.5 15.3576 16.0531 14.0223 17.0377 13.0377C18.0223 12.0531 19.3576 11.5 20.75 11.5C22.1424 11.5 23.4777 12.0531 24.4623 13.0377C25.4469 14.0223 26 15.3576 26 16.75V18.003C25.627 18 25.228 18 24.805 18H16.695C16.272 18 15.874 18 15.5 18.003V16.75ZM12.159 20.159C12.436 19.882 12.824 19.702 13.559 19.603C14.313 19.502 15.315 19.5 16.75 19.5H24.75C26.185 19.5 27.186 19.502 27.942 19.603C28.676 19.702 29.064 19.883 29.341 20.159C29.618 20.436 29.798 20.824 29.897 21.559C29.998 22.314 30 23.315 30 24.75C30 26.185 29.998 27.186 29.897 27.942C29.798 28.676 29.617 29.064 29.341 29.341C29.064 29.618 28.676 29.798 27.941 29.897C27.186 29.998 26.185 30 24.75 30H16.75C15.315 30 14.313 29.998 13.558 29.897C12.824 29.798 12.436 29.617 12.159 29.341C11.882 29.064 11.702 28.676 11.603 27.941C11.502 27.186 11.5 26.185 11.5 24.75C11.5 23.315 11.502 22.313 11.603 21.558C11.702 20.824 11.883 20.436 12.159 20.159Z" fill="#16244A"/>
</svg>
